<?xml version="1.0" encoding="UTF-8" standalone="no"?>
<svg version="1.1" width="421" height="125" viewBox="0 0 421 125"
    xmlns="http://www.w3.org/2000/svg"
    xmlns:svg="http://www.w3.org/2000/svg">
    <g>
        <path fill="#AD0190" stroke="none" transform="scale(0.87671763,1.1406181)" aria-label="proto-mass" d="m 8.9415204,104.26865 v -0.62182 h 4.3527116 v -4.352712 h 0.621817 v 4.974532 z m 6.2181606,0 v -0.62182 h 4.249076 v -4.352712 h 0.621816 v 4.974532 z M 8.9415204,98.050486 v -0.829088 h 4.0418036 v -4.041804 h 0.932725 v 4.870892 z m 12.3326846,6.218164 v -0.62182 h 2.487264 v -4.352712 h 2.487264 v 4.974532 z m -6.114524,-6.218164 v -0.829088 h 4.041804 v -4.041804 h 0.829088 v 4.870892 z M 8.9415204,91.935962 V 90.69233 h 3.7308956 v -3.730896 h 1.243633 v 4.974528 z m 12.3326846,6.114524 v -0.829088 h 2.487264 v -4.041804 h 2.487264 v 4.870892 z M 15.159681,91.935962 V 90.69233 h 3.62726 v -3.730896 h 1.243632 v 4.974528 z M 8.9415204,85.717802 V 84.266898 H 12.361508 V 80.84691 h 1.554541 v 4.870892 z m 12.3326846,6.21816 V 90.69233 h 2.487264 v -3.730896 h 2.487264 v 4.974528 z m -6.114524,-6.21816 v -1.450904 h 3.419988 V 80.84691 h 1.450904 v 4.870892 z M 8.9415204,79.603278 V 77.73783 H 12.0506 v -3.10908 h 1.865449 v 4.974528 z m 12.3326846,6.114524 v -1.450904 h 2.487264 V 80.84691 h 2.487264 v 4.870892 z M 15.159681,79.603278 V 77.73783 h 3.005444 v -3.10908 h 1.865448 v 4.974528 z m -6.2181606,-6.21816 v -2.07272 h 2.7981716 v -2.798172 h 2.176357 v 4.870892 z m 12.3326846,6.21816 V 77.73783 h 2.487264 v -3.10908 h 2.487264 v 4.974528 z m -6.114524,-6.21816 v -2.07272 h 2.798172 v -2.798172 h 2.07272 v 4.870892 z M 8.9415204,67.270594 V 64.78333 h 2.4872636 v -2.487264 h 2.487265 v 4.974528 z m 12.3326846,6.114524 v -2.07272 h 2.487264 v -2.798172 h 2.487264 v 4.870892 z M 15.159681,67.270594 V 64.78333 h 2.383628 v -2.487264 h 2.487264 v 4.974528 z m -6.2181606,-6.21816 v -2.901808 h 2.1763556 v -1.969084 h 2.798173 v 4.870892 z m 12.3326846,6.21816 V 64.78333 h 2.487264 v -2.487264 h 2.487264 v 4.974528 z m -6.114524,-6.21816 v -2.901808 h 2.176356 v -1.969084 h 2.694536 v 4.870892 z M 8.9415204,54.937909 v -3.10908 h 1.8654476 v -1.865448 h 3.109081 v 4.974528 z M 27.492365,67.270594 V 64.78333 h 2.383628 v -2.487264 h 2.487264 v 4.974528 z m -6.21816,-6.21816 v -2.901808 h 2.176356 v -1.969084 h 2.798172 v 4.870892 z m -6.114524,-6.114525 v -3.10908 h 1.761812 v -1.865448 h 3.10908 v 4.974528 z M 8.9415204,48.719749 V 45.403397 H 10.49606 v -1.55454 h 3.419989 v 4.870892 z M 33.606889,67.270594 V 64.78333 h 2.487264 v -2.487264 h 2.487264 v 4.974528 z m -6.114524,-6.21816 v -2.901808 h 2.176356 v -1.969084 h 2.694536 v 4.870892 z m -6.21816,-6.114525 v -3.10908 h 1.865448 v -1.865448 h 3.10908 v 4.974528 z m -6.114524,-6.21816 v -3.316352 h 1.55454 v -1.55454 h 3.316352 v 4.870892 z M 8.9415204,42.605225 v -3.730896 h 1.2436316 v -1.243632 h 3.730897 v 4.974528 z M 33.606889,61.052434 v -2.901808 h 2.279992 v -1.969084 h 2.694536 v 4.870892 z M 21.274205,48.719749 v -3.316352 h 1.658176 v -1.55454 h 3.316352 v 4.870892 z m -6.114524,-6.114524 v -3.730896 h 1.139996 v -1.243632 h 3.730896 v 4.974528 z m -6.2181606,-6.21816 v -3.938168 h 1.03636 v -0.932724 h 3.9381686 v 4.870892 z M 39.825049,61.052434 v -2.901808 h 2.176356 v -1.969084 h 2.694536 v 4.870892 z m -6.21816,-6.114525 v -3.10908 h 1.865448 v -1.865448 h 3.10908 v 4.974528 z M 21.274205,42.605225 v -3.730896 h 1.243632 v -1.243632 h 3.730896 v 4.974528 z m -6.114524,-6.21816 v -3.938168 h 0.932724 v -0.932724 h 3.938168 v 4.870892 z M 8.9415204,30.272541 v -4.249076 h 0.725452 v -0.725452 h 4.2490766 v 4.974528 z M 39.825049,54.937909 v -3.10908 h 1.761812 v -1.865448 h 3.10908 v 4.974528 z m -6.21816,-6.21816 v -3.316352 h 1.658176 v -1.55454 h 3.316352 v 4.870892 z M 21.274205,36.387065 v -3.938168 h 1.03636 v -0.932724 h 3.938168 v 4.870892 z m -6.114524,-6.114524 v -4.249076 h 0.725452 v -0.725452 h 4.14544 v 4.974528 z m -6.2181606,-6.21816 v -4.456348 h 0.51818 v -0.414544 h 4.4563486 v 4.870892 z M 45.939573,54.937909 v -3.10908 h 1.865448 v -1.865448 h 3.10908 v 4.974528 z m -6.114524,-6.21816 v -3.316352 h 1.55454 v -1.55454 h 3.316352 v 4.870892 z m -6.21816,-6.114524 v -3.730896 h 1.243632 v -1.243632 h 3.730896 v 4.974528 z M 21.274205,30.272541 v -4.249076 h 0.725452 v -0.725452 h 4.249076 v 4.974528 z m -6.114524,-6.21816 v -4.456348 h 0.414544 v -0.414544 h 4.456348 v 4.870892 z m 30.779892,24.665368 v -3.316352 h 1.658176 v -1.55454 h 3.316352 v 4.870892 z m -6.114524,-6.114524 v -3.730896 h 1.243632 v -1.243632 h 3.62726 v 4.974528 z m -6.21816,-6.21816 v -3.938168 h 1.03636 v -0.932724 h 3.938168 v 4.870892 z M 21.274205,24.054381 v -4.456348 h 0.51818 v -0.414544 h 4.456348 v 4.870892 z m -6.114524,-6.114524 v -4.974528 h 4.870892 v 4.974528 z m 30.779892,24.665368 v -3.730896 h 1.243632 v -1.243632 h 3.730896 v 4.974528 z m -6.114524,-6.21816 v -3.938168 h 0.932724 v -0.932724 h 3.938168 v 4.870892 z m -6.21816,-6.114524 v -4.249076 h 0.725452 v -0.725452 h 4.249076 v 4.974528 z M 21.274205,17.939857 v -4.974528 h 4.974528 v 4.974528 z m 24.665368,18.447208 v -3.938168 h 1.03636 v -0.932724 h 3.938168 v 4.870892 z m -6.114524,-6.114524 v -4.249076 h 0.725452 v -0.725452 h 4.14544 v 4.974528 z m -6.21816,-6.21816 v -4.456348 h 0.51818 v -0.414544 h 4.456348 v 4.870892 z m -6.114524,-6.114524 v -4.974528 h 4.870892 v 4.974528 z m -6.21816,-6.21816 V 6.8508047 h 4.974528 v 4.8708923 z m 24.665368,18.550844 v -4.249076 h 0.725452 v -0.725452 h 4.249076 v 4.974528 z m -6.114524,-6.21816 v -4.456348 h 0.414544 v -0.414544 h 4.456348 v 4.870892 z m -6.21816,-6.114524 v -4.974528 h 4.974528 v 4.974528 z m -6.114524,-6.21816 V 6.8508047 h 4.870892 v 4.8708923 z m 18.447208,12.332684 v -4.456348 h 0.51818 v -0.414544 h 4.456348 v 4.870892 z m -6.114524,-6.114524 v -4.974528 h 4.870892 v 4.974528 z m -6.21816,-6.21816 V 6.8508047 h 4.974528 v 4.8708923 z m 23.525389,92.546953 v -0.62182 h 4.352712 v -4.352712 h 0.621816 v 4.974532 z m 6.21816,0 v -0.62182 h 4.249076 v -4.352712 h 0.621816 v 4.974532 z m -6.21816,-6.218164 v -0.829088 h 4.041804 v -4.041804 h 0.932724 v 4.870892 z m 12.332684,6.218164 v -0.62182 h 2.487264 v -4.352712 h 2.487264 v 4.974532 z m -6.114524,-6.218164 v -0.829088 h 4.041804 v -4.041804 h 0.829088 v 4.870892 z m -6.21816,-6.114524 V 90.69233 h 3.730896 v -3.730896 h 1.243632 v 4.974528 z m 12.332684,6.114524 v -0.829088 h 2.487264 v -4.041804 h 2.487264 v 4.870892 z M 63.350438,91.935962 V 90.69233 h 3.62726 v -3.730896 h 1.243632 v 4.974528 z m -6.21816,-6.21816 v -1.450904 h 3.419988 V 80.84691 h 1.55454 v 4.870892 z m 24.665369,18.550848 v -0.62182 h 4.352712 v -4.352712 h 0.621816 v 4.974532 z M 69.464962,91.935962 V 90.69233 h 2.487264 v -3.730896 h 2.487264 v 4.974528 z m -6.114524,-6.21816 v -1.450904 h 3.419988 V 80.84691 h 1.450904 v 4.870892 z m -6.21816,-6.114524 V 77.73783 h 3.10908 v -3.10908 h 1.865448 v 4.974528 z m 30.883529,24.665372 v -0.62182 h 4.249076 v -4.352712 h 0.621816 v 4.974532 z m -6.21816,-6.218164 v -0.829088 h 4.041804 v -4.041804 h 0.932724 v 4.870892 z M 69.464962,85.717802 v -1.450904 h 2.487264 V 80.84691 h 2.487264 v 4.870892 z M 63.350438,79.603278 V 77.73783 h 3.005444 v -3.10908 h 1.865448 v 4.974528 z m -6.21816,-6.21816 v -2.07272 h 2.798172 v -2.798172 h 2.176356 v 4.870892 z m 36.998053,30.883532 v -0.62182 h 2.487264 v -4.352712 h 2.487264 v 4.974532 z m -6.114524,-6.218164 v -0.829088 h 4.041804 v -4.041804 h 0.829088 v 4.870892 z m -6.21816,-6.114524 V 90.69233 h 3.730896 v -3.730896 h 1.243632 v 4.974528 z M 69.464962,79.603278 V 77.73783 h 2.487264 v -3.10908 h 2.487264 v 4.974528 z m -6.114524,-6.21816 v -2.07272 h 2.798172 v -2.798172 h 2.07272 v 4.870892 z m -6.21816,-6.114524 V 64.78333 h 2.487264 v -2.487264 h 2.487264 v 4.974528 z m 36.998053,30.779892 v -0.829088 h 2.487264 v -4.041804 h 2.487264 v 4.870892 z M 88.015807,91.935962 V 90.69233 h 3.62726 v -3.730896 h 1.243632 v 4.974528 z m -6.21816,-6.21816 v -1.450904 h 3.419988 V 80.84691 h 1.55454 v 4.870892 z M 69.464962,73.385118 v -2.07272 h 2.487264 v -2.798172 h 2.487264 v 4.870892 z M 63.350438,67.270594 V 64.78333 h 2.383628 v -2.487264 h 2.487264 v 4.974528 z m -6.21816,-6.21816 v -2.901808 h 2.176356 v -1.969084 h 2.798172 v 4.870892 z M 94.130331,91.935962 V 90.69233 h 2.487264 v -3.730896 h 2.487264 v 4.974528 z m -6.114524,-6.21816 v -1.450904 h 3.419988 V 80.84691 h 1.450904 v 4.870892 z m -6.21816,-6.114524 V 77.73783 h 3.10908 v -3.10908 h 1.865448 v 4.974528 z M 69.464962,67.270594 V 64.78333 h 2.487264 v -2.487264 h 2.487264 v 4.974528 z m -6.114524,-6.21816 v -2.901808 h 2.176356 v -1.969084 h 2.694536 v 4.870892 z m -6.21816,-6.114525 v -3.10908 h 1.865448 v -1.865448 h 3.10908 v 4.974528 z m 36.998053,30.779893 v -1.450904 h 2.487264 V 80.84691 h 2.487264 v 4.870892 z M 88.015807,79.603278 V 77.73783 h 3.005444 v -3.10908 h 1.865448 v 4.974528 z m -6.21816,-6.21816 v -2.07272 h 2.798172 v -2.798172 h 2.176356 v 4.870892 z M 69.464962,61.052434 v -2.901808 h 2.176356 v -1.969084 h 2.798172 v 4.870892 z m -6.114524,-6.114525 v -3.10908 h 1.761812 v -1.865448 h 3.10908 v 4.974528 z m -6.21816,-6.21816 v -3.316352 h 1.55454 v -1.55454 h 3.419988 v 4.870892 z M 94.130331,79.603278 V 77.73783 h 2.487264 v -3.10908 h 2.487264 v 4.974528 z m -6.114524,-6.21816 v -2.07272 h 2.798172 v -2.798172 h 2.07272 v 4.870892 z m -6.21816,-6.114524 V 64.78333 h 2.487264 v -2.487264 h 2.487264 v 4.974528 z M 69.464962,54.937909 v -3.10908 h 1.865448 v -1.865448 h 3.10908 v 4.974528 z m -6.114524,-6.21816 v -3.316352 h 1.55454 v -1.55454 h 3.316352 v 4.870892 z m -6.21816,-6.114524 v -3.730896 h 1.243632 v -1.243632 h 3.730896 v 4.974528 z m 36.998053,30.779893 v -2.07272 h 2.487264 v -2.798172 h 2.487264 v 4.870892 z M 88.015807,67.270594 V 64.78333 h 2.383628 v -2.487264 h 2.487264 v 4.974528 z m -6.21816,-6.21816 v -2.901808 h 2.279992 v -1.969084 h 2.694536 v 4.870892 z m -6.114525,-6.114525 v -3.10908 h 1.761812 v -1.865448 h 3.109081 v 4.974528 z m -6.21816,-6.21816 v -3.316352 h 1.658176 v -1.55454 h 3.316352 v 4.870892 z m -6.114524,-6.114524 v -3.730896 h 1.139996 v -1.243632 h 3.730896 v 4.974528 z m -6.21816,-6.21816 v -3.938168 h 
        1.03636 v -0.932724 h 3.938168 v 4.870892 z M 94.130331,67.270594 V 64.78333 h 2.487264 v -2.487264 h 2.487264 v 4.974528 z m -6.114524,-6.21816 v -2.901808 h 2.176356 v -1.969084 h 2.694536 v 4.870892 z m -6.21816,-6.114525 v -3.10908 h 1.865448 v -1.865448 h 3.10908 v 4.974528 z m -6.114525,-6.21816 v -3.316352 h 1.55454 v -1.55454 h 3.316353 v 4.870892 z m -6.21816,-6.114524 v -3.730896 h 1.243632 v -1.243632 h 3.730896 v 4.974528 z m -6.114524,-6.21816 v -3.938168 h 0.932724 v -0.932724 h 3.938168 v 4.870892 z m -6.21816,-6.114524 v -4.249076 h 0.725452 v -0.725452 h 4.249076 v 4.974528 z m 24.665369,18.447208 v -3.316352 h 1.658176 v -1.55454 h 3.316352 v 4.870892 z M 69.464962,36.387065 v -3.938168 h 1.03636 v -0.932724 h 3.938168 v 4.870892 z m -6.114524,-6.114524 v -4.249076 h 0.725452 v -0.725452 h 4.14544 v 4.974528 z m -6.21816,-6.21816 v -4.456348 h 0.51818 v -0.414544 h 4.456348 v 4.870892 z m 30.883529,24.665368 v -3.316352 h 1.55454 v -1.55454 h 3.316352 v 4.870892 z m -6.21816,-6.114524 v -3.730896 h 1.243632 v -1.243632 h 3.730896 v 4.974528 z M 69.464962,30.272541 v -4.249076 h 0.725452 v -0.725452 h 4.249076 v 4.974528 z m -6.114524,-6.21816 v -4.456348 h 0.414544 v -0.414544 h 4.456348 v 4.870892 z m -6.21816,-6.114524 v -4.974528 h 4.974528 v 4.974528 z m 30.883529,24.665368 v -3.730896 h 1.243632 v -1.243632 h 3.62726 v 4.974528 z m -6.21816,-6.21816 v -3.938168 h 1.03636 v -0.932724 h 3.938168 v 4.870892 z M 69.464962,24.054381 v -4.456348 h 0.51818 v -0.414544 h 4.456348 v 4.870892 z m -6.114524,-6.114524 v -4.974528 h 4.870892 v 4.974528 z m 30.779893,24.665368 v -3.730896 h 1.243632 v -1.243632 h 3.730896 v 4.974528 z m -6.114524,-6.21816 v -3.938168 h 0.932724 v -0.932724 h 3.938168 v 4.870892 z m -6.21816,-6.114524 v -4.249076 h 0.725452 v -0.725452 h 4.249076 v 4.974528 z M 69.464962,17.939857 v -4.974528 h 4.974528 v 4.974528 z m -6.114524,-6.21816 V 6.8508047 h 4.870892 v 4.8708923 z m 30.779893,24.665368 v -3.938168 h 1.03636 v -0.932724 h 3.938168 v 4.870892 z m -6.114524,-6.114524 v -4.249076 h 0.725452 v -0.725452 h 4.14544 v 4.974528 z m -6.21816,-6.21816 v -4.456348 h 0.51818 v -0.414544 h 4.456348 v 4.870892 z m -6.114525,-6.114524 v -4.974528 h 4.870893 v 4.974528 z m -6.21816,-6.21816 V 6.8508047 h 4.974528 v 4.8708923 z m 24.665369,18.550844 v -4.249076 h 0.725452 v -0.725452 h 4.249076 v 4.974528 z m -6.114524,-6.21816 v -4.456348 h 0.414544 v -0.414544 h 4.456348 v 4.870892 z m -6.21816,-6.114524 v -4.974528 h 4.974528 v 4.974528 z m -6.114525,-6.21816 V 6.8508047 h 4.870893 v 4.8708923 z m 18.447209,12.332684 v -4.456348 h 0.51818 v -0.414544 h 4.456348 v 4.870892 z m -6.114524,-6.114524 v -4.974528 h 4.870892 v 4.974528 z m -6.21816,-6.21816 V 6.8508047 h 4.974528 v 4.8708923 z m 35.858073,92.546953 v -0.62182 h 4.35271 v -4.352712 h 0.62182 v 4.974532 z m -6.11452,-6.218164 v -0.829088 h 4.0418 v -4.041804 h 0.82909 v 4.870892 z m -6.21816,-6.114524 V 90.69233 h 3.73089 v -3.730896 h 1.24363 v 4.974528 z m 18.55084,12.332688 v -0.62182 h 4.24908 v -4.352712 h 0.62181 v 4.974532 z m -6.21816,-6.218164 v -0.829088 h 4.0418 v -4.041804 h 0.93273 v 4.870892 z M 111.5412,91.935962 V 90.69233 h 3.62726 v -3.730896 h 1.24363 v 4.974528 z m -6.21816,-6.21816 v -1.450904 h 3.41998 V 80.84691 h 1.55454 v 4.870892 z m 24.66536,18.550848 v -0.62182 h 2.48727 v -4.352712 h 2.48726 v 4.974532 z m -6.11452,-6.218164 v -0.829088 h 4.0418 v -4.041804 h 0.82909 v 4.870892 z m -6.21816,-6.114524 V 90.69233 h 2.48726 v -3.730896 h 2.48727 v 4.974528 z m -6.11452,-6.21816 v -1.450904 h 3.41998 V 80.84691 h 1.45091 v 4.870892 z m -6.21816,-6.114524 V 77.73783 h 3.10908 v -3.10908 h 1.86544 v 4.974528 z m 24.66536,18.447208 v -0.829088 h 4.04181 v -4.041804 h 0.93272 v 4.870892 z M 117.65572,85.717802 v -1.450904 h 2.48726 V 80.84691 h 2.48727 v 4.870892 z M 111.5412,79.603278 V 77.73783 h 3.00544 v -3.10908 h 1.86545 v 4.974528 z m -6.21816,-6.21816 v -2.07272 h 2.79817 v -2.798172 h 2.17635 v 4.870892 z m 30.88352,24.665368 v -0.829088 h 2.38363 v -4.041804 h 2.48727 v 4.870892 z M 129.9884,91.935962 V 90.69233 h 3.7309 v -3.730896 h 1.24363 v 4.974528 z M 117.65572,79.603278 V 77.73783 h 2.48726 v -3.10908 h 2.48727 v 4.974528 z m -6.11452,-6.21816 v -2.07272 h 2.79817 v -2.798172 h 2.07272 v 4.870892 z m -6.21816,-6.114524 V 64.78333 h 2.48726 v -2.487264 h 2.48726 v 4.974528 z m 30.88352,24.665368 V 90.69233 h 3.62726 v -3.730896 h 1.24364 v 4.974528 z m -6.21816,-6.21816 v -1.450904 h 3.41999 V 80.84691 h 1.55454 v 4.870892 z M 117.65572,73.385118 v -2.07272 h 2.48726 v -2.798172 h 2.48727 v 4.870892 z M 111.5412,67.270594 V 64.78333 h 2.38362 v -2.487264 h 2.48727 v 4.974528 z m -6.21816,-6.21816 v -2.901808 h 2.17635 v -1.969084 h 2.79817 v 4.870892 z m 36.99805,30.883528 V 90.69233 h 2.48726 v -3.730896 h 2.48727 v 4.974528 z m -6.11453,-6.21816 v -1.450904 h 3.41999 V 80.84691 h 1.45091 v 4.870892 z M 129.9884,79.603278 V 77.73783 h 3.10908 v -3.10908 h 1.86545 v 4.974528 z M 117.65572,67.270594 V 64.78333 h 2.48726 v -2.487264 h 2.48727 v 4.974528 z m -6.11452,-6.21816 v -2.901808 h 2.17635 v -1.969084 h 2.69454 v 4.870892 z m -6.21816,-6.114525 v -3.10908 h 1.86544 v -1.865448 h 3.10908 v 4.974528 z m 36.99805,30.779893 v -1.450904 h 2.48726 V 80.84691 h 2.48727 v 4.870892 z m -6.11453,-6.114524 V 77.73783 h 3.00545 v -3.10908 h 1.86545 v 4.974528 z m -6.21816,-6.21816 v -2.07272 h 2.79818 v -2.798172 h 2.17635 v 4.870892 z M 117.65572,61.052434 v -2.901808 h 2.17636 v -1.969084 h 2.79817 v 4.870892 z m -6.11452,-6.114525 v -3.10908 h 1.76181 v -1.865448 h 3.10908 v 4.974528 z m -6.21816,-6.21816 v -3.316352 h 1.55454 v -1.55454 h 3.41998 v 4.870892 z m 36.99805,30.883529 V 77.73783 h 2.48726 v -3.10908 h 2.48727 v 4.974528 z m -6.11453,-6.21816 v -2.07272 h 2.79818 v -2.798172 h 2.07272 v 4.870892 z M 129.9884,67.270594 V 64.78333 h 2.48727 v -2.487264 h 2.48726 v 4.974528 z M 117.65572,54.937909 v -3.10908 h 1.86545 v -1.865448 h 3.10908 v 4.974528 z m -6.11452,-6.21816 v -3.316352 h 1.55454 v -1.55454 h 3.31635 v 4.870892 z m -6.21816,-6.114524 v -3.730896 h 1.24363 v -1.243632 h 3.73089 v 4.974528 z m 36.99805,30.779893 v -2.07272 h 2.48726 v -2.798172 h 2.48727 v 4.870892 z m -6.11453,-6.114524 V 64.78333 h 2.38363 v -2.487264 h 2.48727 v 4.974528 z m -6.21816,-6.21816 v -2.901808 h 2.28 v -1.969084 h 2.69453 v 4.870892 z M 117.65572,48.719749 v -3.316352 h 1.65818 v -1.55454 h 3.31635 v 4.870892 z m -6.11452,-6.114524 v -3.730896 h 1.13999 v -1.243632 h 3.7309 v 4.974528 z m -6.21816,-6.21816 v -3.938168 h 1.03636 v -0.932724 h 3.93816 v 4.870892 z m 36.99805,30.883529 V 64.78333 h 2.48726 v -2.487264 h 2.48727 v 4.974528 z m -6.11453,-6.21816 v -2.901808 h 2.17636 v -1.969084 h 2.69454 v 4.870892 z m -6.21816,-6.114525 v -3.10908 h 1.86545 v -1.865448 h 3.10908 v 4.974528 z M 117.65572,42.605225 v -3.730896 h 1.24363 v -1.243632 h 3.7309 v 4.974528 z m -6.11452,-6.21816 v -3.938168 h 0.93272 v -0.932724 h 3.93817 v 4.870892 z m -6.21816,-6.114524 v -4.249076 h 0.72545 v -0.725452 h 4.24907 v 4.974528 z m 36.99805,30.779893 v -2.901808 h 2.27999 v -1.969084 h 2.69454 v 4.870892 z m -6.11453,-6.114525 v -3.10908 h 1.76182 v -1.865448 h 3.10908 v 4.974528 z m -6.21816,-6.21816 v -3.316352 h 1.65818 v -1.55454 h 3.31635 v 4.870892 z M 117.65572,36.387065 v -3.938168 h 1.03636 v -0.932724 h 3.93817 v 4.870892 z m -6.11452,-6.114524 v -4.249076 h 0.72545 v -0.725452 h 4.14544 v 4.974528 z m -6.21816,-6.21816 v -4.456348 h 0.51818 v -0.414544 h 4.45634 v 4.870892 z m 36.99805,30.883528 v -3.10908 h 1.86545 v -1.865448 h 3.10908 v 4.974528 z m -6.11453,-6.21816 v -3.316352 h 1.55454 v -1.55454 h 3.31636 v 4.870892 z m -6.21816,-6.114524 v -3.730896 h 1.24364 v -1.243632 h 3.73089 v 4.974528 z M 117.65572,30.272541 v -4.249076 h 0.72545 v -0.725452 h 4.24908 v 4.974528 z m -6.11452,-6.21816 v -4.456348 h 0.41454 v -0.414544 h 4.45635 v 4.870892 z m 30.77989,24.665368 v -3.316352 h 1.65817 v -1.55454 h 3.31636 v 4.870892 z m -6.11453,-6.114524 v -3.730896 h 1.24364 v -1.243632 h 3.62726 v 4.974528 z m -6.21816,-6.21816 v -3.938168 h 1.03636 v -0.932724 h 3.93817 v 4.870892 z M 117.65572,24.054381 v -4.456348 h 0.51818 v -0.414544 h 4.45635 v 4.870892 z m -6.11452,-6.114524 v -4.974528 h 4.87089 v 4.974528 z m 30.77989,24.665368 v -3.730896 h 1.24363 v -1.243632 h 3.7309 v 4.974528 z m -6.11453,-6.21816 v -3.938168 h 0.93273 v -0.932724 h 3.93817 v 4.870892 z m -6.21816,-6.114524 v -4.249076 h 0.72546 v -0.725452 h 4.24907 v 4.974528 z M 117.65572,17.939857 v -4.974528 h 4.97453 v 4.974528 z m 24.66537,18.447208 v -3.938168 h 1.03636 v -0.932724 h 3.93817 v 4.870892 z m -6.11453,-6.114524 v -4.249076 h 0.72546 v -0.725452 h 4.14544 v 4.974528 z m -6.21816,-6.21816 v -4.456348 h 0.51818 v -0.414544 h 4.45635 v 4.870892 z m -6.11452,-6.114524 v -4.974528 h 4.87089 v 4.974528 z m -6.21816,-6.21816 V 6.8508047 h 4.97453 v 4.8708923 z m 24.66537,18.550844 v -4.249076 h 0.72545 v -0.725452 h 4.24908 v 4.974528 z m -6.11453,-6.21816 v -4.456348 h 0.41455 v -0.414544 h 4.45635 v 4.870892 z m -6.21816,-6.114524 v -4.974528 h 4.97453 v 4.974528 z m -6.11452,-6.21816 V 6.8508047 h 4.87089 v 4.8708923 z m 18.44721,12.332684 v -4.456348 h 0.51818 v -0.414544 h 4.45635 v 4.870892 z m -6.11453,-6.114524 v -4.974528 h 4.8709 v 4.974528 z m -6.21816,-6.21816 V 6.8508047 h 4.97453 v 4.8708923 z m 35.85807,92.546953 v -0.62182 h 4.35271 v -4.352712 h 0.62182 v 4.974532 z m 6.21816,0 v -0.62182 h 4.24908 v -4.352712 h 0.62181 v 4.974532 z m -6.21816,-6.218164 v -0.829088 h 4.0418 v -4.041804 h 0.93273 v 4.870892 z m 12.33268,6.218164 v -0.62182 h 2.48727 v -4.352712 h 2.48726 v 4.974532 z m -6.11452,-6.218164 v -0.829088 h 4.0418 v -4.041804 h 0.82909 v 4.870892 z m -6.21816,-6.114524 V 90.69233 h 3.7309 v -3.730896 h 1.24363 v 4.974528 z m 12.33268,6.114524 v -0.829088 h 2.48727 v -4.041804 h 2.48726 v 4.870892 z m -6.11452,-6.114524 V 90.69233 h 3.62726 v -3.730896 h 1.24363 v 
        4.974528 z m -6.21816,-6.21816 v -1.450904 h 3.41999 V 80.84691 h 1.55454 v 4.870892 z m 12.33268,6.21816 V 90.69233 h 2.48727 v -3.730896 h 2.48726 v 4.974528 z m -6.11452,-6.21816 v -1.450904 h 3.41999 V 80.84691 h 1.4509 v 4.870892 z m -6.21816,-6.114524 V 77.73783 h 3.10908 v -3.10908 h 1.86545 v 4.974528 z m 12.33268,6.114524 v -1.450904 h 2.48727 V 80.84691 h 2.48726 v 4.870892 z m -6.11452,-6.114524 V 77.73783 h 3.00544 v -3.10908 h 1.86545 v 4.974528 z m -6.21816,-6.21816 v -2.07272 h 2.79817 v -2.798172 h 2.17636 v 4.870892 z m 12.33268,6.21816 V 77.73783 h 2.48727 v -3.10908 h 2.48726 v 4.974528 z m -6.11452,-6.21816 v -2.07272 h 2.79817 v -2.798172 h 2.07272 v 4.870892 z m -6.21816,-6.114524 V 64.78333 h 2.48726 v -2.487264 h 2.48727 v 4.974528 z m 12.33268,6.114524 v -2.07272 h 2.48727 v -2.798172 h 2.48726 v 4.870892 z m -6.11452,-6.114524 V 64.78333 h 2.38363 v -2.487264 h 2.48726 v 4.974528 z m -6.21816,-6.21816 v -2.901808 h 2.17636 v -1.969084 h 2.79817 v 4.870892 z m 12.33268,6.21816 V 64.78333 h 2.48727 v -2.487264 h 2.48726 v 4.974528 z m -6.11452,-6.21816 v -2.901808 h 2.17636 v -1.969084 h 2.69453 v 4.870892 z m -6.21816,-6.114525 v -3.10908 h 1.86545 v -1.865448 h 3.10908 v 4.974528 z m 12.33268,6.114525 v -2.901808 h 2.28 v -1.969084 h 2.69453 v 4.870892 z m -6.11452,-6.114525 v -3.10908 h 1.76181 v -1.865448 h 3.10908 v 4.974528 z m -6.21816,-6.21816 v -3.316352 h 1.65818 v -1.55454 h 3.31635 v 4.870892 z m 12.33268,6.21816 v -3.10908 h 1.86545 v -1.865448 h 3.10908 v 4.974528 z m -6.11452,-6.21816 v -3.316352 h 1.55454 v -1.55454 h 3.31635 v 4.870892 z m -6.21816,-6.114524 v -3.730896 h 1.24363 v -1.243632 h 3.7309 v 4.974528 z m 12.33268,6.114524 v -3.316352 h 1.65818 v -1.55454 h 3.31635 v 4.870892 z m -6.11452,-6.114524 v -3.730896 h 1.14 v -1.243632 h 3.73089 v 4.974528 z m -6.21816,-6.21816 v -3.938168 h 1.03636 v -0.932724 h 3.93817 v 4.870892 z M 153.51379,24.054381 v -4.456348 h 0.51818 v -0.414544 h 4.45634 v 4.870892 z m 24.66536,18.550844 v -3.730896 h 1.24364 v -1.243632 h 3.73089 v 4.974528 z m -6.11452,-6.21816 v -3.938168 h 0.93272 v -0.932724 h 3.93817 v 4.870892 z m -6.21816,-6.114524 v -4.249076 h 0.72545 v -0.725452 h 4.24908 v 4.974528 z m -6.11452,-6.21816 v -4.456348 h 0.41454 v -0.414544 h 4.45635 v 4.870892 z m -6.21816,-6.114524 v -4.974528 h 4.97452 v 4.974528 z m 24.66536,18.447208 v -3.938168 h 1.03636 v -0.932724 h 3.93817 v 4.870892 z m -6.11452,-6.114524 v -4.249076 h 0.72545 v -0.725452 h 4.14544 v 4.974528 z m -6.21816,-6.21816 v -4.456348 h 0.51818 v -0.414544 h 4.45635 v 4.870892 z m -6.11452,-6.114524 v -4.974528 h 4.87089 v 4.974528 z m 18.4472,12.332684 v -4.249076 h 0.72546 v -0.725452 h 4.24907 v 4.974528 z m -6.11452,-6.21816 v -4.456348 h 0.41454 v -0.414544 h 4.45635 v 4.870892 z m -6.21816,-6.114524 v -4.974528 h 4.97453 v 4.974528 z m -6.11452,-6.21816 V 6.8508047 h 4.87089 v 4.8708923 z m 18.4472,12.332684 v -4.456348 h 0.51818 v -0.414544 h 4.45635 v 4.870892 z m -6.11452,-6.114524 v -4.974528 h 4.87089 v 4.974528 z m -6.21816,-6.21816 V 6.8508047 h 4.97453 v 4.8708923 z m 18.55084,12.332684 v -4.456348 h 0.41455 v -0.414544 h 4.45635 v 4.870892 z m -6.21816,-6.114524 v -4.974528 h 4.97453 v 4.974528 z m -6.11452,-6.21816 V 6.8508047 h 4.87089 v 4.8708923 z m 18.44721,12.332684 v -4.456348 h 0.51818 v -0.414544 h 4.45635 v 4.870892 z m -6.11453,-6.114524 v -4.974528 h 4.8709 v 4.974528 z m -6.21816,-6.21816 V 6.8508047 h 4.97453 v 4.8708923 z m 12.33269,6.21816 v -4.974528 h 4.97453 v 4.974528 z m -6.11453,-6.21816 V 6.8508047 h 4.8709 v 4.8708923 z m 6.11453,0 V 6.8508047 h 4.97453 v 4.8708923 z m 23.5254,92.546953 v -0.62182 h 4.35271 v -4.352712 h 0.62181 v 4.974532 z m -6.11453,-6.218164 v -0.829088 h 4.04181 v -4.041804 h 0.82908 v 4.870892 z m -6.21816,-6.114524 V 90.69233 h 3.7309 v -3.730896 h 1.24363 v 4.974528 z m 18.55085,12.332688 v -0.62182 h 4.24907 v -4.352712 h 0.62182 v 4.974532 z m -6.21816,-6.218164 v -0.829088 h 4.0418 v -4.041804 h 0.93272 v 4.870892 z m -6.11453,-6.114524 V 90.69233 h 3.62726 v -3.730896 h 1.24363 v 4.974528 z m -6.21816,-6.21816 v -1.450904 h 3.41999 V 80.84691 h 1.55454 v 4.870892 z m 24.66537,18.550848 v -0.62182 h 2.48726 v -4.352712 h 2.48727 v 4.974532 z m -6.11452,-6.218164 v -0.829088 h 4.0418 v -4.041804 h 0.82909 v 4.870892 z m -6.21816,-6.114524 V 90.69233 h 2.48726 v -3.730896 h 2.48726 v 4.974528 z m -6.11453,-6.21816 v -1.450904 h 3.41999 V 80.84691 h 1.4509 v 4.870892 z m -6.21816,-6.114524 V 77.73783 h 3.10908 v -3.10908 h 1.86545 v 4.974528 z m 24.66537,18.447208 v -0.829088 h 4.0418 v -4.041804 h 0.93273 v 4.870892 z M 214.03724,85.717802 v -1.450904 h 2.48726 V 80.84691 h 2.48726 v 4.870892 z m -6.11453,-6.114524 V 77.73783 h 3.00545 v -3.10908 h 1.86544 v 4.974528 z m -6.21816,-6.21816 v -2.07272 h 2.79817 v -2.798172 h 2.17636 v 4.870892 z m 30.88353,24.665368 v -0.829088 h 2.38363 v -4.041804 h 2.48726 v 4.870892 z m -6.21816,-6.114524 V 90.69233 h 3.7309 v -3.730896 h 1.24363 v 4.974528 z M 214.03724,79.603278 V 77.73783 h 2.48726 v -3.10908 h 2.48726 v 4.974528 z m -6.11453,-6.21816 v -2.07272 h 2.79817 v -2.798172 h 2.07272 v 4.870892 z m -6.21816,-6.114524 V 64.78333 h 2.48727 v -2.487264 h 2.48726 v 4.974528 z m 30.88353,24.665368 V 90.69233 h 3.62726 v -3.730896 h 1.24363 v 4.974528 z m -6.21816,-6.21816 v -1.450904 h 3.41999 V 80.84691 h 1.55454 v 4.870892 z M 214.03724,73.385118 v -2.07272 h 2.48726 v -2.798172 h 2.48726 v 4.870892 z m -6.11453,-6.114524 V 64.78333 h 2.38363 v -2.487264 h 2.48726 v 4.974528 z m -6.21816,-6.21816 v -2.901808 h 2.17636 v -1.969084 h 2.79817 v 4.870892 z M 238.7026,91.935962 V 90.69233 h 2.48727 v -3.730896 h 2.48726 v 4.974528 z m -6.11452,-6.21816 v -1.450904 h 3.41999 V 80.84691 h 1.4509 v 4.870892 z m -6.21816,-6.114524 V 77.73783 h 3.10908 v -3.10908 h 1.86545 v 4.974528 z M 214.03724,67.270594 V 64.78333 h 2.48726 v -2.487264 h 2.48726 v 4.974528 z m -6.11453,-6.21816 v -2.901808 h 2.17636 v -1.969084 h 2.69453 v 4.870892 z m -6.21816,-6.114525 v -3.10908 H 203.57 v -1.865448 h 3.10908 v 4.974528 z m 36.99805,30.779893 v -1.450904 h 2.48727 V 80.84691 h 2.48726 v 4.870892 z m -6.11452,-6.114524 V 77.73783 h 3.00544 v -3.10908 h 1.86545 v 4.974528 z m -6.21816,-6.21816 v -2.07272 h 2.79817 v -2.798172 h 2.17636 v 4.870892 z M 214.03724,61.052434 v -2.901808 h 2.17635 v -1.969084 h 2.79817 v 4.870892 z m -6.11453,-6.114525 v -3.10908 h 1.76181 v -1.865448 h 3.10908 v 4.974528 z m -6.21816,-6.21816 v -3.316352 h 1.55454 v -1.55454 h 3.41999 v 4.870892 z M 238.7026,79.603278 V 77.73783 h 2.48727 v -3.10908 h 2.48726 v 4.974528 z m -6.11452,-6.21816 v -2.07272 h 2.79817 v -2.798172 h 2.07272 v 4.870892 z m -6.21816,-6.114524 V 64.78333 h 2.48726 v -2.487264 h 2.48727 v 4.974528 z M 214.03724,54.937909 v -3.10908 h 1.86544 v -1.865448 h 3.10908 v 4.974528 z m -6.11453,-6.21816 v -3.316352 h 1.55454 v -1.55454 h 3.31635 v 4.870892 z m -6.21816,-6.114524 v -3.730896 h 1.24363 v -1.243632 h 3.7309 v 4.974528 z m 36.99805,30.779893 v -2.07272 h 2.48727 v -2.798172 h 2.48726 v 4.870892 z m -6.11452,-6.114524 V 64.78333 h 2.38363 v -2.487264 h 2.48726 v 4.974528 z m -6.21816,-6.21816 v -2.901808 h 2.27999 v -1.969084 h 2.69454 v 4.870892 z M 214.03724,48.719749 v -3.316352 h 1.65817 v -1.55454 h 3.31635 v 4.870892 z m -6.11453,-6.114524 v -3.730896 h 1.14 v -1.243632 h 3.73089 v 4.974528 z m -6.21816,-6.21816 v -3.938168 h 1.03636 v -0.932724 h 3.93817 v 4.870892 z M 238.7026,67.270594 V 64.78333 h 2.48727 v -2.487264 h 2.48726 v 4.974528 z m -6.11452,-6.21816 v -2.901808 h 2.17636 v -1.969084 h 2.69453 v 4.870892 z m -6.21816,-6.114525 v -3.10908 h 1.86545 v -1.865448 h 3.10908 v 4.974528 z M 214.03724,42.605225 v -3.730896 h 1.24363 v -1.243632 h 3.73089 v 4.974528 z m -6.11453,-6.21816 v -3.938168 h 0.93273 v -0.932724 h 3.93816 v 4.870892 z m -6.21816,-6.114524 V 26.023465 H 202.43 v -0.725452 h 4.24908 v 4.974528 z m 36.99805,30.779893 v -2.901808 h 2.28 v -1.969084 h 2.69453 v 4.870892 z m -6.11452,-6.114525 v -3.10908 h 1.76181 v -1.865448 h 3.10908 v 4.974528 z m -6.21816,-6.21816 v -3.316352 h 1.65818 v -1.55454 h 3.31635 v 4.870892 z M 214.03724,36.387065 v -3.938168 h 1.03636 v -0.932724 h 3.93816 v 4.870892 z m -6.11453,-6.114524 v -4.249076 h 0.72545 v -0.725452 h 4.14544 v 4.974528 z m -6.21816,-6.21816 v -4.456348 h 0.51818 v -0.414544 h 4.45635 v 4.870892 z m 36.99805,30.883528 v -3.10908 h 1.86545 v -1.865448 h 3.10908 v 4.974528 z m -6.11452,-6.21816 v -3.316352 h 1.55454 v -1.55454 h 3.31635 v 4.870892 z m -6.21816,-6.114524 v -3.730896 h 1.24363 v -1.243632 h 3.7309 v 4.974528 z M 214.03724,30.272541 v -4.249076 h 0.72545 v -0.725452 h 4.24907 v 4.974528 z m -6.11453,-6.21816 v -4.456348 h 0.41455 v -0.414544 h 4.45634 v 4.870892 z m 30.77989,24.665368 v -3.316352 h 1.65818 v -1.55454 h 3.31635 v 4.870892 z m -6.11452,-6.114524 v -3.730896 h 1.24363 v -1.243632 h 3.62726 v 4.974528 z m -6.21816,-6.21816 v -3.938168 h 1.03636 v -0.932724 h 3.93817 v 4.870892 z M 214.03724,24.054381 v -4.456348 h 0.51818 v -0.414544 h 4.45634 v 4.870892 z m -6.11453,-6.114524 v -4.974528 h 4.87089 v 4.974528 z m 30.77989,24.665368 v -3.730896 h 1.24364 v -1.243632 h 3.73089 v 4.974528 z m -6.11452,-6.21816 v -3.938168 h 0.93272 v -0.932724 h 3.93817 v 4.870892 z m -6.21816,-6.114524 v -4.249076 h 0.72545 v -0.725452 h 4.24908 v 4.974528 z M 214.03724,17.939857 v -4.974528 h 4.97452 v 4.974528 z m 24.66536,18.447208 v -3.938168 h 1.03636 v -0.932724 h 3.93817 v 4.870892 z m -6.11452,-6.114524 v -4.249076 h 0.72545 v -0.725452 h 4.14544 v 4.974528 z m -6.21816,-6.21816 v -4.456348 h 0.51818 v -0.414544 h 4.45635 v 4.870892 z m -6.11452,-6.114524 v -4.974528 h 4.87089 v 4.974528 z m -6.21816,-6.21816 V 6.8508047 h 4.97452 v 4.8708923 z m 24.66536,18.550844 v -4.249076 h 0.72546 v -0.725452 h 4.24907 v 4.974528 z m -6.11452,-6.21816 v -4.456348 h 0.41454 v -0.414544 h 4.45635 v 4.870892 z m -6.21816,-6.114524 v -4.974528 h 4.97453 v 
        4.974528 z m -6.11452,-6.21816 V 6.8508047 h 4.87089 v 4.8708923 z m 18.4472,12.332684 v -4.456348 h 0.51818 v -0.414544 h 4.45635 v 4.870892 z m -6.11452,-6.114524 v -4.974528 h 4.87089 v 4.974528 z m -6.21816,-6.21816 V 6.8508047 h 4.97453 v 4.8708923 z m 23.5254,43.216212 v -3.10908 h 1.86544 v -1.865448 h 3.10908 v 4.974528 z m 6.21816,0 v -3.10908 h 1.76181 v -1.865448 h 3.10908 v 4.974528 z m -6.21816,-6.21816 v -3.316352 h 1.55454 v -1.55454 h 3.41998 v 4.870892 z m 12.33268,6.21816 v -3.10908 h 1.86545 v -1.865448 h 3.10908 v 4.974528 z m -6.11452,-6.21816 v -3.316352 h 1.55454 v -1.55454 h 3.31635 v 4.870892 z m 6.11452,0 v -3.316352 h 1.65818 v -1.55454 h 3.31635 v 4.870892 z m 11.19262,55.548901 v -0.62182 h 4.35271 v -4.352712 h 0.62181 v 4.974532 z m 6.21816,0 v -0.62182 h 4.24907 v -4.352712 h 0.62182 v 4.974532 z m -6.21816,-6.218164 v -0.829088 h 4.0418 v -4.041804 h 0.93272 v 4.870892 z m 12.33268,6.218164 v -0.62182 h 2.48726 v -4.352712 h 2.48727 v 4.974532 z m -6.11452,-6.218164 v -0.829088 h 4.0418 v -4.041804 h 0.82909 v 4.870892 z m -6.21816,-6.114524 V 90.69233 h 3.73089 v -3.730896 h 1.24363 v 4.974528 z m 12.33268,6.114524 v -0.829088 h 2.48726 v -4.041804 h 2.48727 v 4.870892 z m -6.11452,-6.114524 V 90.69233 h 3.62726 v -3.730896 h 1.24363 v 4.974528 z m -6.21816,-6.21816 v -1.450904 h 3.41998 V 80.84691 h 1.55454 v 4.870892 z m 12.33268,6.21816 V 90.69233 h 2.48726 v -3.730896 h 2.48727 v 4.974528 z m -6.11452,-6.21816 v -1.450904 h 3.41998 V 80.84691 h 1.45091 v 4.870892 z m -6.21816,-6.114524 V 77.73783 h 3.10908 v -3.10908 h 1.86544 v 4.974528 z m 12.33268,6.114524 v -1.450904 h 2.48726 V 80.84691 h 2.48727 v 4.870892 z m -6.11452,-6.114524 V 77.73783 h 3.00544 v -3.10908 h 1.86545 v 4.974528 z m -6.21816,-6.21816 v -2.07272 h 2.79817 v -2.798172 h 2.17635 v 4.870892 z m 36.99805,30.883532 v -0.62182 h 4.35271 v -4.352712 h 0.62182 v 4.974532 z M 285.7533,79.603278 V 77.73783 h 2.48726 v -3.10908 h 2.48727 v 4.974528 z m -6.11452,-6.21816 v -2.07272 h 2.79817 v -2.798172 h 2.07272 v 4.870892 z m -6.21816,-6.114524 V 64.78333 h 2.48726 v -2.487264 h 2.48726 v 4.974528 z m 43.21621,36.998056 v -0.62182 h 4.24907 v -4.352712 h 0.62182 v 4.974532 z m -6.21816,-6.218164 v -0.829088 h 4.0418 v -4.041804 h 0.93273 v 4.870892 z M 285.7533,73.385118 v -2.07272 h 2.48726 v -2.798172 h 2.48727 v 4.870892 z m -6.11452,-6.114524 V 64.78333 h 2.38362 v -2.487264 h 2.48727 v 4.974528 z m -6.21816,-6.21816 v -2.901808 h 2.17635 v -1.969084 h 2.79817 v 4.870892 z m 49.33073,43.216216 v -0.62182 h 2.48727 v -4.352712 h 2.48726 v 4.974532 z m -6.11452,-6.218164 v -0.829088 h 4.0418 v -4.041804 h 0.82909 v 4.870892 z m -6.21816,-6.114524 V 90.69233 h 3.73089 v -3.730896 h 1.24364 v 4.974528 z M 285.7533,67.270594 V 64.78333 h 2.48726 v -2.487264 h 2.48727 v 4.974528 z m -6.11452,-6.21816 v -2.901808 h 2.17635 v -1.969084 h 2.69454 v 4.870892 z m -6.21816,-6.114525 v -3.10908 h 1.86544 v -1.865448 h 3.10908 v 4.974528 z m 49.33073,43.112577 v -0.829088 h 2.48727 v -4.041804 h 2.48726 v 4.870892 z m -6.11452,-6.114524 V 90.69233 h 3.62726 v -3.730896 h 1.24363 v 4.974528 z m -6.21816,-6.21816 v -1.450904 h 3.41999 V 80.84691 h 1.55454 v 4.870892 z M 285.7533,61.052434 v -2.901808 h 2.17636 v -1.969084 h 2.79817 v 4.870892 z m -6.11452,-6.114525 v -3.10908 h 1.76181 v -1.865448 h 3.10908 v 4.974528 z m -6.21816,-6.21816 v -3.316352 h 1.55454 v -1.55454 h 3.41998 v 4.870892 z m 49.33073,43.216213 V 90.69233 h 2.48727 v -3.730896 h 2.48726 v 4.974528 z m -6.11452,-6.21816 v -1.450904 h 3.41999 V 80.84691 h 1.4509 v 4.870892 z m -6.21816,-6.114524 V 77.73783 h 3.10908 v -3.10908 h 1.86545 v 4.974528 z M 285.7533,54.937909 v -3.10908 h 1.86545 v -1.865448 h 3.10908 v 4.974528 z m -6.11452,-6.21816 v -3.316352 h 1.55454 v -1.55454 h 3.31635 v 4.870892 z m -6.21816,-6.114524 v -3.730896 h 1.24363 v -1.243632 h 3.73089 v 4.974528 z m 49.33073,43.112577 v -1.450904 h 2.48727 V 80.84691 h 2.48726 v 4.870892 z m -6.11452,-6.114524 V 77.73783 h 3.00544 v -3.10908 h 1.86545 v 4.974528 z m -6.21816,-6.21816 v -2.07272 h 2.90181 v -2.798172 h 2.07272 v 4.870892 z M 298.08598,61.052434 v -2.901808 h 2.28 v -1.969084 h 2.69453 v 4.870892 z m -6.11452,-6.114525 v -3.10908 h 1.76181 v -1.865448 h 3.10908 v 4.974528 z m -6.21816,-6.21816 v -3.316352 h 1.65818 v -1.55454 h 3.31635 v 4.870892 z m -6.11452,-6.114524 v -3.730896 h 1.13999 v -1.243632 h 3.7309 v 4.974528 z m -6.21816,-6.21816 v -3.938168 h 1.03636 v -0.932724 h 3.93816 v 4.870892 z m 49.33073,43.216213 V 77.73783 h 2.48727 v -3.10908 h 2.48726 v 4.974528 z m -6.11452,-6.21816 v -2.07272 h 2.79817 v -2.798172 h 2.07272 v 4.870892 z m -6.21816,-6.114524 V 64.78333 h 2.48726 v -2.487264 h 2.48727 v 4.974528 z M 298.08598,54.937909 v -3.10908 h 1.86545 v -1.865448 h 3.10908 v 4.974528 z m -6.11452,-6.21816 v -3.316352 h 1.55454 v -1.55454 h 3.31635 v 4.870892 z m -6.21816,-6.114524 v -3.730896 h 1.24363 v -1.243632 h 3.7309 v 4.974528 z m -6.11452,-6.21816 v -3.938168 h 0.93272 v -0.932724 h 3.93817 v 4.870892 z m -6.21816,-6.114524 v -4.249076 h 0.72545 v -0.725452 h 4.24907 v 4.974528 z m 49.33073,43.112577 v -2.07272 h 2.48727 v -2.798172 h 2.48726 v 4.870892 z m -6.11452,-6.114524 V 64.78333 h 2.38363 v -2.487264 h 2.48726 v 4.974528 z m -6.21816,-6.21816 v -2.901808 h 2.27999 v -1.969084 h 2.69454 v 4.870892 z m -6.11453,-6.114525 v -3.10908 h 1.76182 v -1.865448 h 3.10908 v 4.974528 z m -6.21816,-6.21816 v -3.316352 h 1.65818 v -1.55454 h 3.31635 v 4.870892 z m -6.11452,-6.114524 v -3.730896 h 1.14 v -1.243632 h 3.73089 v 4.974528 z m -6.21816,-6.21816 v -3.938168 h 1.03636 v -0.932724 h 3.93817 v 4.870892 z m -6.11452,-6.114524 v -4.249076 h 0.72545 v -0.725452 h 4.14544 v 4.974528 z m -6.21816,-6.21816 v -4.456348 h 0.51818 v -0.414544 h 4.45634 v 4.870892 z m 49.33073,43.216213 V 64.78333 h 2.48727 v -2.487264 h 2.48726 v 4.974528 z m -6.11452,-6.21816 v -2.901808 h 2.17635 v -1.969084 h 2.69454 v 4.870892 z m -6.21816,-6.114525 v -3.10908 h 1.86545 v -1.865448 h 3.10908 v 4.974528 z m -6.11453,-6.21816 v -3.316352 h 1.55454 v -1.55454 h 3.31636 v 4.870892 z m -6.21816,-6.114524 v -3.730896 h 1.24364 v -1.243632 h 3.73089 v 4.974528 z m -6.11452,-6.21816 v -3.938168 h 0.93272 v -0.932724 h 3.93817 v 4.870892 z m -6.21816,-6.114524 v -4.249076 h 0.72545 v -0.725452 h 4.24908 v 4.974528 z m -6.11452,-6.21816 v -4.456348 h 0.41454 v -0.414544 h 4.45635 v 4.870892 z m -6.21816,-6.114524 v -4.974528 h 4.97452 v 4.974528 z m 49.33073,43.112577 v -2.901808 h 2.27999 v -1.969084 h 2.69454 v 4.870892 z m -6.11452,-6.114525 v -3.10908 h 1.86545 v -1.865448 h 3.00544 v 4.974528 z m -6.21816,-6.21816 v -3.316352 h 1.65817 v -1.55454 h 3.31636 v 4.870892 z m -6.11453,-6.114524 v -3.730896 h 1.24364 v -1.243632 h 3.62726 v 4.974528 z M 285.7533,24.054381 v -4.456348 h 0.51818 v -0.414544 h 4.45635 v 4.870892 z m -6.11452,-6.114524 v -4.974528 h 4.87089 v 4.974528 z m -6.21816,-6.21816 V 6.8508047 h 4.97452 v 4.8708923 z m 49.33073,43.216212 v -3.10908 h 1.86545 v -1.865448 h 3.10908 v 4.974528 z m -6.11452,-6.21816 v -3.316352 h 1.55454 v -1.55454 h 3.31635 v 4.870892 z m -6.21816,-6.114524 v -3.730896 h 1.24363 v -1.243632 h 3.7309 v 4.974528 z m -6.11453,-6.21816 v -3.938168 h 0.93273 v -0.932724 h 3.93817 v 4.870892 z M 279.63878,11.721697 V 6.8508047 h 4.87089 v 4.8708923 z m 43.11257,36.998052 v -3.316352 h 1.65818 v -1.55454 h 3.31635 v 4.870892 z m -6.11452,-6.114524 v -3.730896 h 1.24363 v -1.243632 h 3.62726 v 4.974528 z m -6.21816,-6.21816 v -3.938168 h 1.03636 v -0.932724 h 3.93817 v 4.870892 z m 12.33268,6.21816 v -3.730896 h 1.24363 v -1.243632 h 3.7309 v 4.974528 z m -6.11452,-6.21816 v -3.938168 h 0.93272 v -0.932724 h 3.93817 v 4.870892 z m -6.21816,-6.114524 v -4.249076 h 0.72545 v -0.725452 h 4.24908 v 4.974528 z m 12.33268,6.114524 v -3.938168 h 1.03636 v -0.932724 h 3.93817 v 4.870892 z m -6.11452,-6.114524 v -4.249076 h 0.72545 v -0.725452 h 4.14544 v 4.974528 z m -6.21816,-6.21816 v -4.456348 h 0.51818 v -0.414544 h 4.45635 v 4.870892 z m 12.33268,6.21816 v -4.249076 h 0.72545 v -0.725452 h 4.24908 v 4.974528 z m -6.11452,-6.21816 v -4.456348 h 0.41454 v -0.414544 h 4.45635 v 4.870892 z m 6.11452,0 v -4.456348 h 0.51818 v -0.414544 h 4.45635 v 4.870892 z m -6.11452,-6.114524 v -4.974528 h 4.87089 v 4.974528 z m 6.11452,0 v -4.974528 h 4.97453 v 4.974528 z m -6.11452,-6.21816 V 6.8508047 h 4.87089 v 4.8708923 z m 6.11452,0 V 6.8508047 h 4.97453 v 4.8708923 z m 11.19264,92.546953 v -0.62182 h 4.35271 v -4.352712 h 0.62182 v 4.974532 z m 6.21816,0 v -0.62182 h 4.24908 v -4.352712 h 0.62181 v 4.974532 z m -6.21816,-6.218164 v -0.829088 h 4.04181 v -4.041804 h 0.93272 v 4.870892 z m 12.33269,6.218164 v -0.62182 h 2.48726 v -4.352712 h 2.48726 v 4.974532 z m -6.11453,-6.218164 v -0.829088 h 4.04181 v -4.041804 h 0.82908 v 4.870892 z m -6.21816,-6.114524 V 90.69233 h 3.7309 v -3.730896 h 1.24363 v 4.974528 z m 12.33269,6.114524 v -0.829088 h 2.48726 v -4.041804 h 2.48726 v 4.870892 z m -6.11453,-6.114524 V 90.69233 h 3.62726 v -3.730896 h 1.24363 v 4.974528 z m -6.21816,-6.21816 v -1.450904 h 3.41999 V 80.84691 h 1.55454 v 4.870892 z m 24.66537,18.550848 v -0.62182 h 4.35271 v -4.352712 h 0.62182 v 4.974532 z M 346.27668,91.935962 V 90.69233 h 2.48726 v -3.730896 h 2.48726 v 4.974528 z m -6.11453,-6.21816 v -1.450904 h 3.41999 V 80.84691 h 1.4509 v 4.870892 z m -6.21816,-6.114524 V 77.73783 h 3.10908 v -3.10908 h 1.86545 v 4.974528 z m 30.88353,24.665372 v -0.62182 h 4.24908 v -4.352712 h 0.62181 v 4.974532 z m -6.21816,-6.218164 v -0.829088 h 4.0418 v -4.041804 h 0.93273 v 4.870892 z M 346.27668,85.717802 v -1.450904 h 2.48726 V 80.84691 h 2.48726 v 4.870892 z m -6.11453,-6.114524 V 77.73783 h 3.00545 v -3.10908 h 1.86544 v 4.974528 z m -6.21816,-6.21816 v -2.07272 h 2.79817 v -2.798172 h 2.17636 v 4.870892 z m 36.99805,30.883532 v -0.62182 h 2.48727 v -4.352712 h 2.48726 v 4.974532 z m -6.11452,-6.218164 v -0.829088 h 4.0418 v -4.041804 
        h 0.82909 v 4.870892 z m -6.21816,-6.114524 V 90.69233 h 3.7309 v -3.730896 h 1.24363 v 4.974528 z M 346.27668,79.603278 V 77.73783 h 2.48726 v -3.10908 h 2.48726 v 4.974528 z m -6.11453,-6.21816 v -2.07272 h 2.79817 v -2.798172 h 2.07272 v 4.870892 z m -6.21816,-6.114524 V 64.78333 h 2.48727 v -2.487264 h 2.48726 v 4.974528 z m 36.99805,30.779892 v -0.829088 h 2.48727 v -4.041804 h 2.48726 v 4.870892 z m -6.11452,-6.114524 V 90.69233 h 3.62726 v -3.730896 h 1.24363 v 4.974528 z m -6.21816,-6.21816 v -1.450904 h 3.41999 V 80.84691 h 1.55454 v 4.870892 z M 346.27668,73.385118 v -2.07272 h 2.48726 v -2.798172 h 2.48726 v 4.870892 z m -6.11453,-6.114524 V 64.78333 h 2.38363 v -2.487264 h 2.48726 v 4.974528 z m -6.21816,-6.21816 v -2.901808 h 2.17636 v -1.969084 h 2.79817 v 4.870892 z m 36.99805,30.883528 V 90.69233 h 2.48727 v -3.730896 h 2.48726 v 4.974528 z m -6.11452,-6.21816 v -1.450904 h 3.41999 V 80.84691 h 1.4509 v 4.870892 z m -6.21816,-6.114524 V 77.73783 h 3.10908 v -3.10908 h 1.86545 v 4.974528 z M 346.27668,67.270594 V 64.78333 h 2.48726 v -2.487264 h 2.48726 v 4.974528 z m -6.11453,-6.21816 v -2.901808 h 2.17636 v -1.969084 h 2.69453 v 4.870892 z m -6.21816,-6.114525 v -3.10908 h 1.86545 v -1.865448 h 3.10908 v 4.974528 z m 36.99805,30.779893 v -1.450904 h 2.48727 V 80.84691 h 2.48726 v 4.870892 z m -6.11452,-6.114524 V 77.73783 h 3.00544 v -3.10908 h 1.86545 v 4.974528 z m -6.21816,-6.21816 v -2.07272 h 2.79817 v -2.798172 h 2.17636 v 4.870892 z m -6.11452,-6.114524 V 64.78333 h 2.38362 v -2.487264 h 2.48727 v 4.974528 z m -6.21816,-6.21816 v -2.901808 h 2.17635 v -1.969084 h 2.79817 v 4.870892 z m -6.11453,-6.114525 v -3.10908 h 1.76181 v -1.865448 h 3.10908 v 4.974528 z m -6.21816,-6.21816 v -3.316352 h 1.55454 v -1.55454 h 3.41999 v 4.870892 z m 36.99805,30.883529 V 77.73783 h 2.48727 v -3.10908 h 2.48726 v 4.974528 z m -6.11452,-6.21816 v -2.07272 h 2.79817 v -2.798172 h 2.07272 v 4.870892 z m -6.21816,-6.114524 V 64.78333 h 2.48726 v -2.487264 h 2.48727 v 4.974528 z m -6.11452,-6.21816 v -2.901808 h 2.17635 v -1.969084 h 2.69454 v 4.870892 z m -6.21816,-6.114525 v -3.10908 h 1.86544 v -1.865448 h 3.10908 v 4.974528 z m -6.11453,-6.21816 v -3.316352 h 1.55454 v -1.55454 h 3.31635 v 4.870892 z m -6.21816,-6.114524 v -3.730896 h 1.24363 v -1.243632 h 3.7309 v 4.974528 z m 36.99805,30.779893 v -2.07272 h 2.48727 v -2.798172 h 2.48726 v 4.870892 z m -6.11452,-6.114524 V 64.78333 h 2.38363 v -2.487264 h 2.48726 v 4.974528 z m -6.21816,-6.21816 v -2.901808 h 2.27999 v -1.969084 h 2.69454 v 4.870892 z M 346.27668,48.719749 v -3.316352 h 1.65817 v -1.55454 h 3.31635 v 4.870892 z m -6.11453,-6.114524 v -3.730896 h 1.14 v -1.243632 h 3.73089 v 4.974528 z m -6.21816,-6.21816 v -3.938168 h 1.03636 v -0.932724 h 3.93817 v 4.870892 z m 36.99805,30.883529 V 64.78333 h 2.48727 v -2.487264 h 2.48726 v 4.974528 z m -6.11452,-6.21816 v -2.901808 h 2.17636 v -1.969084 h 2.69453 v 4.870892 z m -6.21816,-6.114525 v -3.10908 h 1.86545 v -1.865448 h 3.10908 v 4.974528 z M 346.27668,42.605225 v -3.730896 h 1.24363 v -1.243632 h 3.73089 v 4.974528 z m -6.11453,-6.21816 v -3.938168 h 0.93273 v -0.932724 h 3.93816 v 4.870892 z m -6.21816,-6.114524 v -4.249076 h 0.72545 v -0.725452 h 4.24908 v 4.974528 z m 36.99805,30.779893 v -2.901808 h 2.28 v -1.969084 h 2.69453 v 4.870892 z m -6.11452,-6.114525 v -3.10908 h 1.76181 v -1.865448 h 3.10908 v 4.974528 z m -6.21816,-6.21816 v -3.316352 h 1.65818 v -1.55454 h 3.31635 v 4.870892 z M 346.27668,36.387065 v -3.938168 h 1.03636 v -0.932724 h 3.93816 v 4.870892 z m -6.11453,-6.114524 v -4.249076 h 0.72545 v -0.725452 h 4.14544 v 4.974528 z m -6.21816,-6.21816 v -4.456348 h 0.51818 v -0.414544 h 4.45635 v 4.870892 z m 36.99805,30.883528 v -3.10908 h 1.86545 v -1.865448 h 3.10908 v 4.974528 z m -6.11452,-6.21816 v -3.316352 h 1.55454 v -1.55454 h 3.31635 v 4.870892 z m -6.21816,-6.114524 v -3.730896 h 1.24363 v -1.243632 h 3.7309 v 4.974528 z M 346.27668,30.272541 v -4.249076 h 0.72545 v -0.725452 h 4.24907 v 4.974528 z m -6.11453,-6.21816 v -4.456348 h 0.41455 v -0.414544 h 4.45634 v 4.870892 z m 30.77989,24.665368 v -3.316352 h 1.65818 v -1.55454 h 3.31635 v 4.870892 z m -6.11452,-6.114524 v -3.730896 h 1.24363 v -1.243632 h 3.62726 v 4.974528 z m -6.21816,-6.21816 v -3.938168 h 1.03636 v -0.932724 h 3.93817 v 4.870892 z M 346.27668,24.054381 v -4.456348 h 0.51818 v -0.414544 h 4.45634 v 4.870892 z m -6.11453,-6.114524 v -4.974528 h 4.87089 v 4.974528 z m 30.77989,24.665368 v -3.730896 h 1.24364 v -1.243632 h 3.73089 v 4.974528 z m -6.11452,-6.21816 v -3.938168 h 0.93272 v -0.932724 h 3.93817 v 4.870892 z m -6.21816,-6.114524 v -4.249076 h 0.72545 v -0.725452 h 4.24908 v 4.974528 z M 346.27668,17.939857 v -4.974528 h 4.97452 v 4.974528 z m 24.66536,18.447208 v -3.938168 h 1.03636 v -0.932724 h 3.93817 v 4.870892 z m -6.11452,-6.114524 v -4.249076 h 0.72545 v -0.725452 h 4.14544 v 4.974528 z m -6.21816,-6.21816 v -4.456348 h 0.51818 v -0.414544 h 4.45635 v 4.870892 z m -6.11452,-6.114524 v -4.974528 h 4.87089 v 4.974528 z m -6.21816,-6.21816 V 6.8508047 h 4.97452 v 4.8708923 z m 24.66536,18.550844 v -4.249076 h 0.72546 v -0.725452 h 4.24907 v 4.974528 z m -6.11452,-6.21816 v -4.456348 h 0.41454 v -0.414544 h 4.45635 v 4.870892 z m -6.21816,-6.114524 v -4.974528 h 4.97453 v 4.974528 z m -6.11452,-6.21816 V 6.8508047 h 4.87089 v 4.8708923 z m 18.4472,12.332684 v -4.456348 h 0.51818 v -0.414544 h 4.45635 v 4.870892 z m -6.11452,-6.114524 v -4.974528 h 4.87089 v 4.974528 z m -6.21816,-6.21816 V 6.8508047 h 4.97453 v 4.8708923 z m 35.85808,92.546953 v -0.62182 h 4.35271 v -4.352712 h 0.62182 v 4.974532 z m -6.11452,-6.218164 v -0.829088 h 4.0418 v -4.041804 h 0.82909 v 4.870892 z m -6.21816,-6.114524 V 90.69233 h 3.73089 v -3.730896 h 1.24364 v 4.974528 z m 18.55084,12.332688 v -0.62182 h 4.24908 v -4.352712 h 0.62181 v 4.974532 z m -6.21816,-6.218164 v -0.829088 h 4.04181 v -4.041804 h 0.93272 v 4.870892 z m -6.11452,-6.114524 V 90.69233 h 3.62726 v -3.730896 h 1.24363 v 4.974528 z m -6.21816,-6.21816 v -1.450904 h 3.41999 V 80.84691 h 1.55454 v 4.870892 z m 24.66537,18.550848 v -0.62182 h 2.48726 v -4.352712 h 2.48726 v 4.974532 z m -6.11453,-6.218164 v -0.829088 h 4.04181 v -4.041804 h 0.82908 v 4.870892 z m -6.21816,-6.114524 V 90.69233 h 2.48727 v -3.730896 h 2.48726 v 4.974528 z m -6.11452,-6.21816 v -1.450904 h 3.41999 V 80.84691 h 1.4509 v 4.870892 z m -6.21816,-6.114524 V 77.73783 h 3.10908 v -3.10908 h 1.86545 v 4.974528 z m 24.66537,18.447208 v -0.829088 h 4.0418 v -4.041804 h 0.93272 v 4.870892 z M 394.46744,85.717802 v -1.450904 h 2.48727 V 80.84691 h 2.48726 v 4.870892 z m -6.11452,-6.114524 V 77.73783 h 3.00544 v -3.10908 h 1.86545 v 4.974528 z m -6.21816,-6.21816 v -2.07272 h 2.79817 v -2.798172 h 2.17636 v 4.870892 z m 30.88353,24.665368 v -0.829088 h 2.38362 v -4.041804 h 2.48727 v 4.870892 z m -6.21816,-6.114524 V 90.69233 h 3.73089 v -3.730896 h 1.24363 v 4.974528 z M 394.46744,79.603278 V 77.73783 h 2.48727 v -3.10908 h 2.48726 v 4.974528 z m -6.11452,-6.21816 v -2.07272 h 2.79817 v -2.798172 h 2.07272 v 4.870892 z m 24.66537,18.550844 V 90.69233 h 3.62726 v -3.730896 h 1.24363 v 4.974528 z m -6.21816,-6.21816 v -1.450904 h 3.41998 V 80.84691 h 1.55454 v 4.870892 z M 394.46744,73.385118 v -2.07272 h 2.48727 v -2.798172 h 2.48726 v 4.870892 z m 24.66537,18.550844 V 90.69233 h 2.48726 v -3.730896 h 2.48727 v 4.974528 z m -6.11452,-6.21816 v -1.450904 h 3.41998 V 80.84691 h 1.45091 v 4.870892 z m -6.21816,-6.114524 V 77.73783 h 3.10908 v -3.10908 h 1.86544 v 4.974528 z m 12.33268,6.114524 v -1.450904 h 2.48726 V 80.84691 h 2.48727 v 4.870892 z m -6.11452,-6.114524 V 77.73783 h 3.00544 v -3.10908 h 1.86545 v 4.974528 z m -6.21816,-6.21816 v -2.07272 h 2.79817 v -2.798172 h 2.17635 v 4.870892 z m 12.33268,6.21816 V 77.73783 h 2.48726 v -3.10908 h 2.48727 v 4.974528 z m -6.11452,-6.21816 v -2.07272 h 2.79817 v -2.798172 h 2.07272 v 4.870892 z m -6.21816,-6.114524 V 64.78333 h 2.48726 v -2.487264 h 2.48726 v 4.974528 z m -6.11453,-6.21816 v -2.901808 h 2.17636 v -1.969084 h 2.69453 v 4.870892 z m -6.21816,-6.114525 v -3.10908 h 1.86545 v -1.865448 h 3.10908 v 4.974528 z m -6.11452,-6.21816 v -3.316352 h 1.55454 v -1.55454 h 3.31635 v 4.870892 z m -6.21816,-6.114524 v -3.730896 h 1.24363 v -1.243632 h 3.7309 v 4.974528 z m 36.99805,30.779893 v -2.07272 h 2.48726 v -2.798172 h 2.48727 v 4.870892 z m -6.11452,-6.114524 V 64.78333 h 2.38362 v -2.487264 h 2.48727 v 4.974528 z m -6.21816,-6.21816 v -2.901808 h 2.27999 v -1.969084 h 2.69453 v 4.870892 z m -6.11453,-6.114525 v -3.10908 h 1.76181 v -1.865448 h 3.10908 v 4.974528 z m -6.21816,-6.21816 v -3.316352 h 1.65818 v -1.55454 h 3.31635 v 4.870892 z m -6.11452,-6.114524 v -3.730896 h 1.13999 v -1.243632 h 3.7309 v 4.974528 z m -6.21816,-6.21816 v -3.938168 h 1.03636 v -0.932724 h 3.93817 v 4.870892 z m 36.99805,30.883529 V 64.78333 h 2.48726 v -2.487264 h 2.48727 v 4.974528 z m -6.11452,-6.21816 v -2.901808 h 2.17635 v -1.969084 h 2.69454 v 4.870892 z m -6.21816,-6.114525 v -3.10908 h 1.86544 v -1.865448 h 3.10908 v 4.974528 z m -6.11453,-6.21816 v -3.316352 h 1.55454 v -1.55454 h 3.31635 v 4.870892 z m -6.21816,-6.114524 v -3.730896 h 1.24363 v -1.243632 h 3.7309 v 4.974528 z m -6.11452,-6.21816 v -3.938168 h 0.93272 v -0.932724 h 3.93817 v 4.870892 z m -6.21816,-6.114524 v -4.249076 h 0.72545 v -0.725452 h 4.24908 v 4.974528 z m 36.99805,30.779893 v -2.901808 h 2.27999 v -1.969084 h 2.69454 v 4.870892 z m -6.11452,-6.114525 v -3.10908 h 1.76181 v -1.865448 h 3.10908 v 4.974528 z m -6.21816,-6.21816 v -3.316352 h 1.65817 v -1.55454 h 3.31635 v 4.870892 z m -6.11453,-6.114524 v -3.730896 h 1.14 v -1.243632 h 3.73089 v 4.974528 z m -6.21816,-6.21816 v -3.938168 h 1.03636 v -0.932724 h 3.93817 v 4.870892 z m -6.11452,-6.114524 v -4.249076 h 0.72545 v -0.725452 h 4.14544 v 4.974528 z m -6.21816,-6.21816 v -4.456348 h 0.51818 v -0.414544 h 4.45635 v 4.870892 z m 12.33268,6.21816 v -4.249076 h 0.72545 v -0.725452 
        h 4.24908 v 4.974528 z m -6.11452,-6.21816 v -4.456348 h 0.41454 v -0.414544 h 4.45635 v 4.870892 z m 6.11452,0 v -4.456348 h 0.51818 v -0.414544 h 4.45635 v 4.870892 z m -6.11452,-6.114524 v -4.974528 h 4.87089 v 4.974528 z m 18.44721,12.332684 v -4.249076 h 0.72545 v -0.725452 h 4.24907 v 4.974528 z M 394.46744,17.939857 v -4.974528 h 4.97453 v 4.974528 z m 18.55085,12.332684 v -4.249076 h 0.72545 v -0.725452 h 4.14544 v 4.974528 z m -6.21816,-6.21816 v -4.456348 h 0.51818 v -0.414544 h 4.45634 v 4.870892 z m -6.11453,-6.114524 v -4.974528 h 4.87089 v 4.974528 z m -6.21816,-6.21816 V 6.8508047 h 4.97453 v 4.8708923 z m 24.66537,18.550844 v -4.249076 h 0.72545 v -0.725452 h 4.24908 v 4.974528 z m -6.11452,-6.21816 v -4.456348 h 0.41454 v -0.414544 h 4.45635 v 4.870892 z m -6.21816,-6.114524 v -4.974528 h 4.97452 v 4.974528 z m -6.11453,-6.21816 V 6.8508047 h 4.87089 v 4.8708923 z m 18.44721,12.332684 v -4.456348 h 0.51818 v -0.414544 h 4.45635 v 4.870892 z m -6.11452,-6.114524 v -4.974528 h 4.87089 v 4.974528 z m -6.21816,-6.21816 V 6.8508047 h 4.97452 v 4.8708923 z m 35.85808,92.546953 v -0.62182 h 4.35271 v -4.352712 h 0.62182 v 4.974532 z m -6.11453,-6.218164 v -0.829088 h 4.04181 v -4.041804 h 0.82909 v 4.870892 z m -6.21816,-6.114524 V 90.69233 h 3.7309 v -3.730896 h 1.24363 v 4.974528 z m 18.55085,12.332688 v -0.62182 h 4.24907 v -4.352712 h 0.62182 v 4.974532 z m -6.21816,-6.218164 v -0.829088 h 4.0418 v -4.041804 h 0.93273 v 4.870892 z m -6.11453,-6.114524 V 90.69233 h 3.62726 v -3.730896 h 1.24364 v 4.974528 z m -6.21816,-6.21816 v -1.450904 h 3.41999 V 80.84691 h 1.55454 v 4.870892 z m 24.66537,18.550848 v -0.62182 h 2.48727 v -4.352712 h 2.48726 v 4.974532 z m -6.11452,-6.218164 v -0.829088 h 4.0418 v -4.041804 h 0.82909 v 4.870892 z m -6.21816,-6.114524 V 90.69233 h 2.48726 v -3.730896 h 2.48727 v 4.974528 z m -6.11453,-6.21816 v -1.450904 h 3.41999 V 80.84691 h 1.45091 v 4.870892 z m -6.21816,-6.114524 V 77.73783 h 3.10908 v -3.10908 h 1.86545 v 4.974528 z m 24.66537,18.447208 v -0.829088 h 4.04181 v -4.041804 h 0.93272 v 4.870892 z M 442.65821,85.717802 v -1.450904 h 2.48726 V 80.84691 h 2.48727 v 4.870892 z m -6.11453,-6.114524 V 77.73783 h 3.00545 v -3.10908 h 1.86545 v 4.974528 z m -6.21816,-6.21816 v -2.07272 h 2.79818 v -2.798172 h 2.17635 v 4.870892 z m 30.88353,24.665368 v -0.829088 h 2.38363 v -4.041804 h 2.48726 v 4.870892 z m -6.21816,-6.114524 V 90.69233 h 3.7309 v -3.730896 h 1.24363 v 4.974528 z M 442.65821,79.603278 V 77.73783 h 2.48726 v -3.10908 h 2.48727 v 4.974528 z m -6.11453,-6.21816 v -2.07272 h 2.79818 v -2.798172 h 2.07272 v 4.870892 z m 24.66537,18.550844 V 90.69233 h 3.62726 v -3.730896 h 1.24363 v 4.974528 z m -6.21816,-6.21816 v -1.450904 h 3.41999 V 80.84691 h 1.55454 v 4.870892 z M 442.65821,73.385118 v -2.07272 h 2.48726 v -2.798172 h 2.48727 v 4.870892 z m 24.66537,18.550844 V 90.69233 h 2.48726 v -3.730896 h 2.48726 v 4.974528 z m -6.11453,-6.21816 v -1.450904 h 3.41999 V 80.84691 h 1.4509 v 4.870892 z m -6.21816,-6.114524 V 77.73783 h 3.10908 v -3.10908 h 1.86545 v 4.974528 z m 12.33269,6.114524 v -1.450904 h 2.48726 V 80.84691 h 2.48726 v 4.870892 z m -6.11453,-6.114524 V 77.73783 h 3.00545 v -3.10908 h 1.86544 v 4.974528 z m -6.21816,-6.21816 v -2.07272 h 2.79817 v -2.798172 h 2.17636 v 4.870892 z m 12.33269,6.21816 V 77.73783 h 2.48726 v -3.10908 h 2.48726 v 4.974528 z m -6.11453,-6.21816 v -2.07272 h 2.79817 v -2.798172 h 2.07272 v 4.870892 z m -6.21816,-6.114524 V 64.78333 h 2.48727 v -2.487264 h 2.48726 v 4.974528 z m -6.11452,-6.21816 v -2.901808 h 2.17635 v -1.969084 h 2.69454 v 4.870892 z m -6.21816,-6.114525 v -3.10908 h 1.86545 v -1.865448 h 3.10908 v 4.974528 z m -6.11453,-6.21816 v -3.316352 h 1.55454 v -1.55454 h 3.31636 v 4.870892 z m -6.21816,-6.114524 v -3.730896 h 1.24364 v -1.243632 h 3.73089 v 4.974528 z m 36.99806,30.779893 v -2.07272 h 2.48726 v -2.798172 h 2.48726 v 4.870892 z m -6.11453,-6.114524 V 64.78333 h 2.38363 v -2.487264 h 2.48726 v 4.974528 z m -6.21816,-6.21816 v -2.901808 h 2.27999 v -1.969084 h 2.69454 v 4.870892 z m -6.11452,-6.114525 v -3.10908 h 1.76181 v -1.865448 h 3.10908 v 4.974528 z m -6.21816,-6.21816 v -3.316352 h 1.65817 v -1.55454 h 3.31636 v 4.870892 z m -6.11453,-6.114524 v -3.730896 h 1.14 v -1.243632 h 3.7309 v 4.974528 z m -6.21816,-6.21816 v -3.938168 h 1.03636 v -0.932724 h 3.93817 v 4.870892 z m 36.99806,30.883529 V 64.78333 h 2.48726 v -2.487264 h 2.48726 v 4.974528 z m -6.11453,-6.21816 v -2.901808 h 2.17636 v -1.969084 h 2.69453 v 4.870892 z m -6.21816,-6.114525 v -3.10908 h 1.86545 v -1.865448 h 3.10908 v 4.974528 z m -6.11452,-6.21816 v -3.316352 h 1.55454 v -1.55454 h 3.31635 v 4.870892 z m -6.21816,-6.114524 v -3.730896 h 1.24363 v -1.243632 h 3.7309 v 4.974528 z m -6.11453,-6.21816 v -3.938168 h 0.93273 v -0.932724 h 3.93817 v 4.870892 z m -6.21816,-6.114524 v -4.249076 h 0.72546 v -0.725452 h 4.24907 v 4.974528 z m 36.99806,30.779893 v -2.901808 h 2.27999 v -1.969084 h 2.69453 v 4.870892 z m -6.11453,-6.114525 v -3.10908 h 1.76181 v -1.865448 h 3.10908 v 4.974528 z m -6.21816,-6.21816 v -3.316352 h 1.65818 v -1.55454 h 3.31635 v 4.870892 z m -6.11452,-6.114524 v -3.730896 h 1.13999 v -1.243632 h 3.7309 v 4.974528 z m -6.21816,-6.21816 v -3.938168 h 1.03636 v -0.932724 h 3.93817 v 4.870892 z m -6.11453,-6.114524 v -4.249076 h 0.72546 v -0.725452 h 4.14544 v 4.974528 z m -6.21816,-6.21816 v -4.456348 h 0.51818 v -0.414544 h 4.45635 v 4.870892 z m 12.33269,6.21816 v -4.249076 h 0.72545 v -0.725452 h 4.24908 v 4.974528 z m -6.11453,-6.21816 v -4.456348 h 0.41455 v -0.414544 h 4.45635 v 4.870892 z m 6.11453,0 v -4.456348 h 0.51818 v -0.414544 h 4.45635 v 4.870892 z m -6.11453,-6.114524 v -4.974528 h 4.8709 v 4.974528 z m 18.44721,12.332684 v -4.249076 h 0.72545 v -0.725452 h 4.24908 v 4.974528 z M 442.65821,17.939857 v -4.974528 h 4.97453 v 4.974528 z m 18.55084,12.332684 v -4.249076 h 0.72545 v -0.725452 h 4.14544 v 4.974528 z m -6.21816,-6.21816 v -4.456348 h 0.51818 v -0.414544 h 4.45635 v 4.870892 z m -6.11452,-6.114524 v -4.974528 h 4.87089 v 4.974528 z m -6.21816,-6.21816 V 6.8508047 h 4.97453 v 4.8708923 z m 24.66537,18.550844 v -4.249076 h 0.72545 v -0.725452 h 4.24907 v 4.974528 z m -6.11453,-6.21816 v -4.456348 h 0.41455 v -0.414544 h 4.45634 v 4.870892 z m -6.21816,-6.114524 v -4.974528 h 4.97453 v 4.974528 z m -6.11452,-6.21816 V 6.8508047 h 4.87089 v 4.8708923 z m 18.44721,12.332684 v -4.456348 h 0.51818 v -0.414544 h 4.45634 v 4.870892 z m -6.11453,-6.114524 v -4.974528 h 4.87089 v 4.974528 z m -6.21816,-6.21816 V 6.8508047 h 4.97453 v 4.8708923 z" />
    </g>
</svg>
